<?xml version="1.0" encoding="UTF-8" standalone="no"?>
<svg
   height="1024"
   width="1024"
   version="1.1"
   id="svg4"
   sodipodi:docname="icon.svg"
   inkscape:export-filename="godotcopai.svg"
   inkscape:export-xdpi="6"
   inkscape:export-ydpi="6"
   xmlns:inkscape="http://www.inkscape.org/namespaces/inkscape"
   xmlns:sodipodi="http://sodipodi.sourceforge.net/DTD/sodipodi-0.dtd"
   xmlns="http://www.w3.org/2000/svg"
   xmlns:svg="http://www.w3.org/2000/svg">
  <defs
     id="defs4" />
  <sodipodi:namedview
     id="namedview4"
     pagecolor="#ffffff"
     bordercolor="#000000"
     borderopacity="0.25"
     inkscape:showpageshadow="2"
     inkscape:pageopacity="0.0"
     inkscape:pagecheckerboard="0"
     inkscape:deskcolor="#d1d1d1"
     inkscape:export-bgcolor="#ffffff00" />
  <path
     d="m 415.60341,66.816061 c -42.39203,9.424151 -84.32671,22.54494 -123.64257,42.333989 0.89912,34.71618 3.14362,67.97967 7.69336,101.76758 -15.26842,9.78214 -31.31512,18.17757 -45.57622,29.62891 -14.49,11.14747 -29.2896,21.81231 -42.4101,34.84961 -26.212,-17.33728 -53.9547,-33.6299 -82.5352,-48.01172 -30.807501,33.1552 -59.613301,68.94006 -83.144501,108.98437 18.4931,29.02877 38.3295,58.20569 56.699201,80.95899 v 197.7832 25.1211 22.86132 c 0.4496,0.004 0.8984,0.0209 1.3438,0.0625 l 150.6699,14.52735 c 7.8923,0.76176 14.0775,7.11448 14.6269,15.02343 l 4.6465,66.50977 131.42972,9.37891 9.05468,-61.38672 c 1.17386,-7.95891 8.00029,-13.85742 16.05078,-13.85742 H 589.4706 c 8.04633,0 14.87302,5.89851 16.04688,13.85742 l 9.05468,61.38672 131.4336,-9.37891 4.64258,-66.50977 c 0.55362,-7.90895 6.73464,-14.25751 14.62695,-15.02343 l 150.61133,-14.52735 c 0.4454,-0.0416 0.89028,-0.0583 1.33984,-0.0625 v -19.61132 l 0.0625,-0.0195 v -226.1348 c 21.2165,-26.70928 41.30684,-56.1715 56.69922,-80.95899 -23.52291,-40.04431 -52.34486,-75.82917 -83.15234,-108.98437 -28.57217,14.38182 -56.32515,30.67444 -82.53711,48.01172 -13.11639,-13.0373 -27.88953,-23.70214 -42.40039,-34.84961 -14.25695,-11.45134 -30.32318,-19.84677 -45.5625,-29.62891 4.53724,-33.78791 6.7803,-67.0514 7.68359,-101.76758 -39.32002,-19.789049 -81.24927,-32.909838 -123.66211,-42.333989 -16.9335,28.45977 -32.41939,59.279229 -45.90625,89.408209 -15.99275,-2.67239 -32.05995,-3.66203 -48.14844,-3.85351 v -0.0254 c -0.11239,0 -0.21676,0.0254 -0.3125,0.0254 -0.0999,0 -0.20478,-0.0254 -0.30468,-0.0254 v 0.0254 c -16.11763,0.19148 -32.17106,1.18112 -48.16797,3.85351 -13.47854,-30.12898 -28.95559,-60.948439 -45.91407,-89.408209 z m 99.87331,360.945999 c 223.71512,2.06015 299.90068,49.19366 298.854,89.3294 -1.3084,50.17192 -78.06225,85.16892 -297.43145,83.69585 -231.17839,-1.55237 -313.64179,-52.06466 -311.28219,-83.69585 2.2498,-30.15975 86.19374,-91.38909 309.85964,-89.3294 z"
     stroke-width="4.16261"
     id="path1"
     style="fill:#ffffff"
     sodipodi:nodetypes="cccccccccccccccccssccccccccccccccccccccsccccsssss" />
  <path
     d="m 782.05962,708.66419 -4.66629,66.86402 c -0.56195,8.05882 -6.97237,14.4734 -15.03119,15.052 l -160.48946,11.45134 c -0.39129,0.0291 -0.78257,0.0416 -1.1697,0.0416 -7.97556,0 -14.85635,-5.85263 -16.03437,-13.86149 l -9.20354,-62.41419 H 444.51349 l -9.20353,62.41419 c -1.23629,8.40015 -8.74564,14.44009 -17.20407,13.81986 L 257.61638,790.58018 c -8.0588,-0.5786 -14.4692,-6.99318 -15.0311,-15.052 l -4.6663,-66.86402 -135.4805,-13.06227 c 0.062,14.56081 0.2497,30.51194 0.2497,33.68801 0,143.08559 181.5107,211.86025 407.02429,212.65114 h 0.27473 0.2789 c 225.51361,-0.79089 406.96182,-69.56555 406.96182,-212.65114 0,-3.23435 0.19565,-19.11887 0.26225,-33.68801 z"
     id="path2"
     style="fill:#ffffff;stroke-width:4.16261" />
  <path
     d="m 770.90738,519.65124 c 0,34.13092 -104.90977,35.27862 -271.93029,34.66206 -131.16951,-0.48421 -232.75171,-0.56244 -232.61021,-34.84662 0.1723,-41.74641 105.04392,-41.5513 244.28686,-40.95121 160.83385,0.69316 260.1651,-0.28089 260.34216,40.95121"
     id="path3"
     style="fill:#ffffff;stroke-width:3.56063"
     sodipodi:nodetypes="csssc" />
</svg>
